<svg width="1000" height="400" viewBox="0 0 1000 400" xmlns="http://www.w3.org/2000/svg">
  <!-- Background -->
  <rect width="1000" height="400" fill="#F4EBD9"/>
  
  <!-- Icon Group -->
  <g transform="translate(80, 80) scale(0.8)">
    <!-- Main Flame Shape -->
    <path d="M100,280 C60,280 20,240 20,180 C20,110 80,60 100,0 C120,60 180,110 180,180 C180,240 140,280 100,280 Z" fill="#FF9900"/>
    <!-- Inner Drop (Negative Space) -->
    <path d="M100,270 C130,270 150,235 150,195 C150,155 100,100 100,100 C100,100 50,155 50,195 C50,235 70,270 100,270 Z" fill="#F4EBD9"/>
  </g>

  <!-- Text Group -->
  <g font-family="Arial, Helvetica, sans-serif">
    <!-- Main Title -->
    <text x="250" y="210" font-size="90" fill="#CC6600" font-weight="900">Warm<tspan fill="#FF9900" font-weight="normal">Talk.org</tspan></text>
    
    <!-- Subtitle -->
    <text x="255" y="260" font-size="32" fill="#FF9900">
      Therapy <tspan dx="5" dy="-2" font-size="24">•</tspan><tspan dx="5" dy="2">Counseling</tspan> <tspan dx="5" dy="-2" font-size="24">•</tspan><tspan dx="5" dy="2">Coaching</tspan>
    </text>
  </g>
</svg>